<svg width="1024" height="1024" viewBox="0 0 1024 1024" fill="none" xmlns="http://www.w3.org/2000/svg">
<g clip-path="url(#clip0_3_957)">
<path d="M915.887 337.188C920.397 338.866 924.238 341.956 926.835 345.994C929.433 350.034 930.646 354.802 930.293 359.587L910.335 689.653C907.751 732.345 891.906 775.665 865.588 815.421C790.006 929.656 634.323 984.062 517.837 937.159C401.351 890.256 368.223 759.716 443.716 645.572C469.854 606.105 507.792 570.895 550.493 544.778L884.221 340.974C894.288 334.814 906.358 333.358 915.887 337.188Z" fill="url(#paint0_linear_3_957)"/>
<path d="M760.782 204.655C765.29 206.333 769.133 209.423 771.73 213.462C774.328 217.5 775.541 222.27 775.189 227.054L755.23 557.12C752.646 599.812 736.801 643.132 710.483 682.889C634.902 797.123 479.219 851.529 362.733 804.626C246.246 757.724 213.119 627.183 288.611 513.039C314.749 473.573 352.687 438.364 395.388 412.245L729.116 208.44C739.184 202.281 751.253 200.825 760.782 204.655Z" fill="url(#paint1_linear_3_957)"/>
<path d="M763.859 414.477L755.235 557.118C752.649 599.811 736.804 643.13 710.486 682.887C644.566 782.519 517.716 836.64 409.081 817.732C395.226 764.705 405.695 703.059 443.715 645.572C469.853 606.105 507.791 570.894 550.492 544.778L763.859 414.477Z" fill="#73B1FF"/>
<path fill-rule="evenodd" clip-rule="evenodd" d="M646.175 259.09L608.728 281.958L600.104 424.589C599.97 426.964 599.768 429.338 599.544 431.712L599.34 433.639C599.139 435.654 598.891 437.693 598.622 439.708L598.487 440.895C598.149 443.135 597.767 445.6 597.364 447.975C597.364 448.381 597.264 448.799 597.165 449.214C597.124 449.392 597.082 449.568 597.049 449.743C596.711 451.67 596.329 453.597 595.947 455.521C595.883 455.79 595.829 456.056 595.776 456.319C595.716 456.611 595.658 456.899 595.587 457.18C595.536 457.415 595.483 457.653 595.43 457.892C594.979 459.94 594.492 462.151 593.97 464.235C593.97 464.551 593.868 464.859 593.765 465.169C593.708 465.341 593.65 465.515 593.61 465.691L593.608 465.694C593.092 467.664 592.575 469.634 592.013 471.626L591.542 473.33C590.868 475.68 590.15 478.011 589.408 480.34C589.351 480.52 589.289 480.699 589.228 480.878C589.166 481.056 589.104 481.235 589.047 481.415C588.396 483.454 587.698 485.514 586.98 487.552C586.754 488.112 586.552 488.695 586.351 489.277C586.041 490.125 585.725 490.972 585.405 491.827C585.167 492.465 584.927 493.107 584.687 493.757L583.294 497.364C582.732 498.774 582.148 500.162 581.564 501.552C581.399 501.944 581.248 502.306 581.104 502.647C580.74 503.515 580.428 504.262 580.058 505.114C579.746 505.829 579.351 506.701 578.949 507.591C578.685 508.175 578.42 508.766 578.169 509.324C577.867 510.003 577.611 510.547 577.367 511.067C577.103 511.625 576.854 512.157 576.574 512.796C576.17 513.719 575.601 514.855 575.05 515.961C574.865 516.33 574.681 516.698 574.506 517.052C574.392 517.286 574.285 517.503 574.183 517.708C573.67 518.746 573.308 519.48 572.821 520.434C572.488 521.084 572.044 521.932 571.588 522.808C571.244 523.468 570.891 524.14 570.573 524.756C570.377 525.135 570.206 525.47 570.049 525.778C569.615 526.632 569.289 527.268 568.844 528.028C568.034 529.528 567.18 531.029 566.325 532.506L564.595 535.531C563.628 537.187 562.617 538.846 561.606 540.48C561.111 541.309 560.617 542.139 560.1 542.967C558.572 545.454 556.999 547.895 555.381 550.358C554.392 551.851 553.381 553.345 552.346 554.838C550.907 556.944 549.447 559.027 547.852 561.087L547.29 561.827C545.963 563.641 544.593 565.433 543.222 567.224C542.919 567.626 542.608 568.02 542.298 568.409C542.126 568.627 541.953 568.844 541.784 569.062C541.48 569.451 541.182 569.839 540.885 570.225C540.04 571.331 539.198 572.429 538.232 573.54C537.905 573.93 537.588 574.328 537.276 574.724C537.137 574.898 536.999 575.072 536.861 575.244C535.221 577.192 533.58 579.14 531.916 581.045L531.715 581.268C528.718 584.597 525.721 587.854 522.726 591.035L521.984 591.796C519.092 594.783 516.132 597.768 513.105 600.755L512.027 601.762C509.352 604.294 506.633 606.803 503.869 609.222L502.745 610.208C499.958 612.649 497.148 615.024 494.271 617.353L493.103 618.293C490.347 620.533 487.537 622.721 484.675 624.856L483.685 625.595C480.69 627.79 477.693 629.932 474.696 632.024L474.089 632.426C471.003 634.547 467.886 636.624 464.74 638.654L464.583 638.766C461.436 640.76 458.244 642.708 455.052 644.613L454.221 645.104C451.03 646.956 447.817 648.77 444.58 650.548L443.501 651.13C440.341 652.832 437.134 654.49 433.883 656.103L432.625 656.73C429.14 658.432 425.612 660.089 422.082 661.68L420.959 662.173C417.363 663.77 413.744 665.263 410.104 666.651L408.98 667.122C407.294 667.795 405.587 668.444 403.901 669.071L402.688 669.542C400.575 670.325 398.462 671.088 396.327 671.782L394.597 672.364L389.967 673.932L387.585 674.693L383.539 675.947L381.291 676.598C379.271 677.201 377.25 677.761 375.232 678.319L375.223 678.321L373.539 678.771C371.044 679.441 368.548 680.092 366.032 680.695L364.346 681.078C362.324 681.547 360.278 682.018 358.256 682.443L356.164 682.892C353.626 683.407 351.109 683.9 348.568 684.369H348.165C345.602 684.817 343.04 685.243 340.456 685.623L338.455 685.937C335.759 686.317 333.083 686.676 330.408 686.99H330.026C327.464 687.282 324.88 687.528 322.296 687.775L320.272 687.93C317.599 688.155 314.924 688.356 312.227 688.49H312.159C309.552 688.625 306.967 688.715 304.383 688.782H302.383H294.36H294.112C291.897 688.782 289.684 688.683 287.469 688.585C287.098 688.568 286.729 688.552 286.358 688.536H284.358C281.706 688.402 279.055 688.244 276.425 688.021H276.222C273.638 687.818 271.075 687.55 268.513 687.258L266.536 687.035C263.929 686.722 261.322 686.363 258.715 685.96H258.557C257.025 685.732 255.501 685.48 253.98 685.214C259.385 705.891 268.488 725.256 281.099 742.552C281.226 742.577 281.353 742.603 281.481 742.628L283.414 743.009C285.954 743.48 288.493 743.928 291.034 744.308H291.19C293.798 744.712 296.404 745.069 299.033 745.383L300.99 745.608C303.552 745.9 306.136 746.168 308.699 746.369H308.922C311.552 746.594 314.205 746.75 316.857 746.884H318.857C321.441 746.996 324.025 747.087 326.611 747.13H326.859H334.858H336.881C339.143 747.13 341.405 747.011 343.665 746.891C343.989 746.873 344.313 746.856 344.635 746.84H344.949C347.624 746.704 350.299 746.503 352.996 746.28L355.019 746.122L355.371 746.088C357.819 745.854 360.283 745.617 362.749 745.339H363.109C365.784 745.026 368.481 744.667 371.154 744.286L373.178 743.973C375.741 743.592 378.303 743.166 380.864 742.719H381.202C383.74 742.248 386.281 741.755 388.798 741.24L390.887 740.792C392.74 740.406 394.574 739.984 396.421 739.56L397.001 739.426L398.687 739.045C401.182 738.44 403.699 737.791 406.194 737.119L407.856 736.671C409.88 736.111 411.902 735.551 413.925 734.945L415.116 734.61L416.127 734.297L420.195 733.042L422.443 732.279L427.073 730.712L428.826 730.13L435.163 727.89L436.376 727.42L441.479 725.47L441.974 725.269L442.603 725.001C446.243 723.508 449.862 722.014 453.458 720.521L454.56 720.028C458.109 718.438 461.616 716.78 465.122 715.078L465.594 714.832L466.38 714.451C469.595 712.838 472.809 711.182 475.977 709.478L477.079 708.874C480.316 707.127 483.522 705.32 486.699 703.453L486.968 703.296L487.551 702.961C490.743 701.048 493.913 699.1 497.059 697.114L497.215 697.003C500.363 694.986 503.478 692.911 506.566 690.776L507.015 690.484L507.195 690.372C510.183 688.268 513.173 686.14 516.184 683.943L517.174 683.206C520.036 681.069 522.853 678.881 525.624 676.641L526.321 676.083L526.77 675.701C529.647 673.372 532.478 670.99 535.266 668.556L536.39 667.57C539.154 665.151 541.873 662.642 544.548 660.112L545.177 659.529L545.626 659.104C548.623 656.206 551.582 653.22 554.504 650.144L555.223 649.383C558.22 646.202 561.217 642.947 564.214 639.618L564.348 639.482C566.034 637.579 567.674 635.63 569.293 633.682L570.686 631.979C571.877 630.523 573.046 629.044 574.214 627.5L575.676 625.662C577.045 623.87 578.395 622.079 579.744 620.265L580.282 619.526C581.099 618.407 581.902 617.284 582.712 616.153C583.394 615.198 584.077 614.239 584.777 613.277L585.181 612.693C586.058 611.417 586.934 610.118 587.789 608.818C589.408 606.377 591.002 603.914 592.532 601.449C593.026 600.642 593.519 599.838 593.992 599.008C595.025 597.351 596.038 595.693 597.025 594.013C597.318 593.509 597.598 593.005 597.88 592.501C598.16 591.997 598.442 591.494 598.735 590.99L598.738 590.982C599.591 589.484 600.444 587.985 601.273 586.51C601.543 586.017 601.806 585.502 602.068 584.994C602.374 584.396 602.677 583.807 602.981 583.262C603.768 581.806 604.532 580.373 605.229 578.917C605.791 577.797 606.353 576.677 606.893 575.534C607.142 575.005 607.466 574.359 607.806 573.678C608.2 572.888 608.62 572.047 608.982 571.278L609.066 571.102C609.69 569.778 610.061 568.987 610.555 567.808C610.837 567.135 611.199 566.358 611.568 565.564C611.877 564.9 612.19 564.228 612.467 563.596C612.87 562.669 613.176 561.923 613.479 561.176C613.632 560.803 613.785 560.429 613.949 560.034C614.087 559.704 614.24 559.342 614.401 558.963C614.82 557.975 615.291 556.864 615.68 555.846C615.911 555.242 616.116 554.718 616.311 554.22C616.573 553.551 616.816 552.933 617.073 552.239C617.289 551.657 617.491 551.152 617.684 550.668C617.891 550.148 618.089 549.649 618.288 549.104L618.759 547.804L619.366 546.081C620.084 544.042 620.781 541.981 621.456 539.942C621.456 539.71 621.559 539.478 621.663 539.248C621.719 539.121 621.776 538.994 621.816 538.867C622.558 536.627 623.254 534.21 623.929 531.857C624.076 531.397 624.209 530.922 624.338 530.458C624.367 530.356 624.394 530.255 624.423 530.155L625.096 527.714L625.129 527.594C625.431 526.474 625.715 525.43 625.996 524.22L626.378 522.763C626.947 520.405 627.488 518.052 627.997 515.707L628.333 514.05C628.737 512.126 629.097 510.201 629.457 508.276V508.271C629.457 507.863 629.555 507.446 629.653 507.031C629.695 506.853 629.737 506.676 629.772 506.502C630.175 504.128 630.535 501.775 630.874 499.401C630.874 499.02 630.874 498.64 631.03 498.237C631.287 496.324 631.501 494.39 631.716 492.472L631.75 492.166C631.75 491.771 631.799 491.378 631.848 490.988C631.879 490.736 631.912 490.486 631.928 490.239C632.154 487.865 632.356 485.469 632.514 483.117L646.175 259.09Z" fill="url(#paint2_linear_3_957)"/>
<path fill-rule="evenodd" clip-rule="evenodd" d="M800.906 391.164L763.461 414.033L754.835 556.693C754.701 559.067 754.499 561.441 754.273 563.815L754.072 565.742C753.87 567.757 753.622 569.796 753.351 571.812L753.217 572.999C752.88 575.239 752.498 577.704 752.093 580.078C752.093 580.484 751.995 580.902 751.897 581.317C751.855 581.495 751.813 581.671 751.778 581.847C751.442 583.773 751.06 585.7 750.678 587.625C750.613 587.891 750.56 588.157 750.505 588.422C750.447 588.714 750.389 589.002 750.318 589.283C750.265 589.518 750.214 589.758 750.16 589.997C749.709 592.045 749.223 594.254 748.7 596.338C748.7 596.654 748.598 596.962 748.496 597.272C748.438 597.444 748.381 597.618 748.339 597.794V597.797C747.823 599.768 747.307 601.738 746.745 603.729L746.272 605.433C745.599 607.784 744.879 610.114 744.137 612.443C744.08 612.623 744.019 612.802 743.959 612.98C743.897 613.159 743.835 613.339 743.779 613.518C743.126 615.557 742.429 617.618 741.711 619.655C741.485 620.215 741.284 620.798 741.082 621.38C740.773 622.227 740.456 623.073 740.136 623.928C739.898 624.566 739.658 625.21 739.418 625.86L738.025 629.465C737.463 630.877 736.879 632.265 736.294 633.655C736.128 634.047 735.977 634.408 735.835 634.75C735.472 635.616 735.159 636.365 734.788 637.217C734.477 637.933 734.082 638.804 733.68 639.694C733.417 640.276 733.149 640.867 732.9 641.427C732.598 642.107 732.342 642.65 732.096 643.169C731.835 643.729 731.583 644.26 731.305 644.899C730.9 645.822 730.332 646.958 729.78 648.066C729.594 648.435 729.412 648.802 729.238 649.155C729.121 649.389 729.014 649.606 728.912 649.811C728.401 650.85 728.039 651.584 727.552 652.537C727.217 653.189 726.775 654.038 726.317 654.913C725.973 655.571 725.622 656.243 725.304 656.859C725.108 657.238 724.937 657.573 724.78 657.882C724.344 658.735 724.02 659.371 723.573 660.131C722.764 661.631 721.911 663.132 721.056 664.609L719.325 667.634C718.359 669.291 717.348 670.949 716.337 672.584C715.842 673.412 715.348 674.242 714.831 675.07C713.302 677.557 711.729 679.998 710.11 682.461C709.123 683.955 708.11 685.448 707.077 686.941C705.638 689.047 704.178 691.13 702.582 693.19L702.02 693.93C700.694 695.744 699.323 697.537 697.952 699.327C697.65 699.73 697.337 700.123 697.028 700.514C696.855 700.732 696.682 700.947 696.513 701.165C696.211 701.555 695.913 701.942 695.617 702.328C694.769 703.434 693.927 704.532 692.963 705.643C692.636 706.033 692.32 706.432 692.007 706.827C691.867 707.001 691.73 707.175 691.592 707.347C689.952 709.295 688.31 711.244 686.648 713.148L686.446 713.371C683.449 716.701 680.452 719.958 677.455 723.138L676.713 723.899C673.821 726.886 670.863 729.871 667.837 732.858L666.756 733.866C664.083 736.398 661.363 738.906 658.598 741.325L657.475 742.311C654.689 744.753 651.879 747.127 649.002 749.456L647.833 750.396C645.076 752.637 642.268 754.824 639.406 756.959L638.416 757.699C635.419 759.893 632.423 762.036 629.427 764.127L628.82 764.529C625.734 766.65 622.617 768.727 619.471 770.757L619.313 770.869C616.167 772.863 612.975 774.811 609.784 776.716L608.953 777.207C605.761 779.059 602.548 780.873 599.311 782.651L598.232 783.233C595.07 784.935 591.864 786.593 588.612 788.206L587.354 788.833C583.871 790.535 580.342 792.192 576.814 793.783L575.69 794.276C572.095 795.873 568.476 797.366 564.835 798.754L563.711 799.226C562.025 799.898 560.318 800.547 558.632 801.174L557.417 801.645C555.306 802.428 553.193 803.189 551.058 803.885L549.326 804.467L544.697 806.035L542.314 806.796L538.27 808.05L536.022 808.701C534 809.304 531.976 809.864 529.954 810.424L528.268 810.874C525.773 811.544 523.28 812.195 520.761 812.799L519.075 813.179C517.053 813.65 515.009 814.122 512.985 814.546L510.895 814.995C508.355 815.51 505.838 816.003 503.299 816.472H502.894C500.332 816.92 497.769 817.346 495.185 817.726L493.185 818.04C490.488 818.421 487.813 818.78 485.14 819.093H484.758C482.197 819.385 479.613 819.631 477.031 819.876L477.025 819.878L475.003 820.034C472.328 820.258 469.655 820.46 466.958 820.594H466.891C464.283 820.728 461.699 820.818 459.113 820.885H457.114H449.089H448.843C446.627 820.885 444.412 820.786 442.197 820.688C441.828 820.672 441.458 820.655 441.089 820.639H439.089C436.437 820.505 433.784 820.347 431.155 820.124H430.953C428.369 819.921 425.806 819.653 423.244 819.361L421.265 819.138C418.659 818.825 416.052 818.466 413.446 818.064H413.287C411.745 817.833 410.212 817.58 408.681 817.311C414.086 837.989 423.189 857.352 435.801 874.65C435.937 874.677 436.076 874.704 436.212 874.731L438.145 875.112C440.684 875.583 443.224 876.031 445.763 876.411H445.921C448.527 876.814 451.135 877.173 453.764 877.486L455.719 877.711C458.282 878.003 460.866 878.271 463.428 878.472H463.654C466.283 878.697 468.935 878.853 471.588 878.987H473.586C476.172 879.099 478.757 879.19 481.341 879.233H481.588H489.59H491.612C493.874 879.233 496.134 879.114 498.397 878.994C498.72 878.976 499.042 878.96 499.366 878.943H499.681C502.356 878.807 505.029 878.606 507.726 878.383L509.75 878.226L510.112 878.191C512.554 877.956 515.018 877.72 517.48 877.443H517.84C520.514 877.129 523.211 876.77 525.886 876.39L527.908 876.076C530.47 875.696 533.032 875.27 535.595 874.822H535.931C538.472 874.351 541.012 873.858 543.529 873.343L545.618 872.895C547.472 872.509 549.308 872.087 551.158 871.661L551.732 871.529L553.418 871.148C555.911 870.543 558.43 869.894 560.923 869.222L562.587 868.774C564.609 868.214 566.632 867.654 568.656 867.049L569.847 866.713L570.858 866.4L574.926 865.146L577.174 864.383L581.804 862.815L583.557 862.233L589.894 859.993L591.107 859.524L596.208 857.574L596.703 857.372L597.332 857.104C600.973 855.611 604.592 854.117 608.189 852.624L609.289 852.131C612.841 850.541 616.347 848.883 619.853 847.181L620.324 846.935L621.111 846.554C624.325 844.941 627.538 843.285 630.708 841.581L631.81 840.978C635.045 839.23 638.251 837.423 641.428 835.557L641.697 835.399L642.283 835.064C645.474 833.152 648.642 831.203 651.79 829.217L651.946 829.105C655.092 827.089 658.209 825.014 661.295 822.879L661.745 822.587L661.925 822.475C664.914 820.371 667.904 818.243 670.915 816.046L671.905 815.309C674.765 813.172 677.582 810.984 680.354 808.744L681.052 808.184L681.501 807.804C684.378 805.475 687.21 803.093 689.996 800.659L691.119 799.673C693.883 797.254 696.604 794.745 699.277 792.215L699.906 791.632L700.358 791.208C703.353 788.31 706.313 785.323 709.234 782.247L709.954 781.486C712.951 778.305 715.946 775.05 718.943 771.721L719.077 771.585C720.763 769.682 722.405 767.734 724.022 765.784L725.417 764.082C726.608 762.626 727.776 761.148 728.945 759.602L730.405 757.766C731.776 755.973 733.126 754.183 734.473 752.368L735.013 751.629C735.83 750.511 736.634 749.387 737.441 748.256C738.123 747.301 738.809 746.342 739.507 745.38L739.912 744.796C740.789 743.52 741.665 742.221 742.52 740.921C744.137 738.48 745.734 736.017 747.261 733.552C747.756 732.746 748.25 731.939 748.723 731.111C749.756 729.454 750.767 727.796 751.756 726.116C752.049 725.612 752.329 725.108 752.611 724.604C752.891 724.101 753.173 723.597 753.464 723.093C754.319 721.592 755.173 720.092 756.005 718.613C756.272 718.118 756.537 717.605 756.797 717.098C757.105 716.499 757.409 715.91 757.712 715.365C758.5 713.91 759.263 712.476 759.96 711.019C760.522 709.901 761.084 708.781 761.622 707.637C761.873 707.108 762.195 706.462 762.537 705.781C762.931 704.991 763.351 704.15 763.713 703.381L763.797 703.204C764.419 701.879 764.792 701.091 765.286 699.911C765.568 699.238 765.93 698.461 766.299 697.667C766.607 697.005 766.921 696.331 767.196 695.699C767.601 694.773 767.905 694.026 768.211 693.279C768.363 692.906 768.514 692.533 768.68 692.137C768.818 691.808 768.971 691.445 769.133 691.064C769.551 690.079 770.022 688.968 770.411 687.949C770.64 687.345 770.847 686.822 771.042 686.323C771.304 685.655 771.546 685.035 771.804 684.342C772.02 683.761 772.222 683.255 772.415 682.771C772.622 682.249 772.819 681.752 773.017 681.207L773.49 679.907L774.097 678.184C774.815 676.145 775.512 674.084 776.187 672.045C776.187 671.813 776.29 671.581 776.394 671.349C776.45 671.224 776.507 671.097 776.547 670.971C777.287 668.73 777.985 666.313 778.658 663.96C778.807 663.5 778.94 663.023 779.069 662.557C779.096 662.458 779.125 662.358 779.153 662.258L779.827 659.817L779.86 659.698C780.162 658.579 780.444 657.534 780.726 656.323L781.108 654.866C781.679 652.506 782.217 650.155 782.726 647.81L783.064 646.154C783.468 644.227 783.828 642.301 784.188 640.374C784.188 639.966 784.286 639.549 784.385 639.134C784.426 638.957 784.468 638.779 784.503 638.605C784.907 636.231 785.267 633.878 785.603 631.504C785.603 631.124 785.603 630.743 785.761 630.339C786.018 628.425 786.232 626.489 786.447 624.572L786.48 624.269C786.48 623.874 786.53 623.481 786.58 623.091C786.611 622.839 786.641 622.589 786.66 622.343C786.885 619.968 787.087 617.572 787.243 615.22L800.906 391.164Z" fill="url(#paint3_linear_3_957)"/>
<path d="M605.652 72.11C610.162 73.7882 614.003 76.8783 616.599 80.9169C619.198 84.9554 620.411 89.7246 620.058 94.5087L600.102 424.576C597.516 467.267 581.671 510.586 555.353 550.345C479.771 664.577 324.088 718.983 207.603 672.081C91.1165 625.178 57.9889 494.639 133.481 380.495C159.619 341.029 197.557 305.818 240.259 279.701L573.986 75.8954C584.053 69.7357 596.123 68.2798 605.652 72.11Z" fill="url(#paint4_linear_3_957)"/>
<path d="M608.706 281.955L600.083 424.573C597.499 467.266 581.654 510.585 555.336 550.342C489.42 649.967 362.58 704.088 253.949 685.19C240.096 632.165 250.566 570.523 288.584 513.038C314.724 473.571 352.66 438.36 395.363 412.244L608.706 281.955Z" fill="#A9F0FD"/>
</g>
<defs>
<linearGradient id="paint0_linear_3_957" x1="666.793" y1="335.078" x2="666.793" y2="954" gradientUnits="userSpaceOnUse">
<stop stop-color="#538CF1"/>
<stop offset="1" stop-color="#497CD6"/>
</linearGradient>
<linearGradient id="paint1_linear_3_957" x1="511.689" y1="202.545" x2="511.689" y2="821.467" gradientUnits="userSpaceOnUse">
<stop stop-color="#92C2FF"/>
<stop offset="1" stop-color="#76B2FE"/>
</linearGradient>
<linearGradient id="paint2_linear_3_957" x1="450.077" y1="259.09" x2="450.077" y2="747.13" gradientUnits="userSpaceOnUse">
<stop stop-color="#73B1FF"/>
<stop offset="1" stop-color="#63A8FF"/>
</linearGradient>
<linearGradient id="paint3_linear_3_957" x1="833.72" y1="391.164" x2="833.72" y2="938.821" gradientUnits="userSpaceOnUse">
<stop stop-color="#2F69CF"/>
<stop offset="1" stop-color="#417BDF" stop-opacity="0"/>
</linearGradient>
<linearGradient id="paint4_linear_3_957" x1="356.56" y1="70" x2="356.56" y2="688.921" gradientUnits="userSpaceOnUse">
<stop offset="0.0001" stop-color="#D1F8FF"/>
<stop offset="1" stop-color="#B0F3FF"/>
</linearGradient>
<clipPath id="clip0_3_957">
<rect width="1024" height="1024" fill="white"/>
</clipPath>
</defs>
</svg>
